<?xml version="1.0" encoding="UTF-8" standalone="no"?>
<!DOCTYPE svg PUBLIC "-//W3C//DTD SVG 1.1//EN" "http://www.w3.org/Graphics/SVG/1.1/DTD/svg11.dtd">
<svg version="1.1" xmlns="http://www.w3.org/2000/svg" xmlns:xlink="http://www.w3.org/1999/xlink" preserveAspectRatio="xMidYMid meet" viewBox="0 0 640 640" width="640" height="640"><defs><path d="M2 6C2 5.4 2 5.07 2 5C2 3.35 3.35 2 5 2C6.65 2 8 3.35 8 5C8 5.07 8 5.4 8 6L2 6ZM6 12L6 8L4 8L4 12L6 12ZM0 5C0 5.07 0 5.4 0 6L0 10C0 11.2 0 11.87 0 12C0 13.1 0.9 14 2 14C2.6 14 7.4 14 8 14C9.1 14 10 13.1 10 12C10 11.87 10 11.2 10 10L10 6C10 5.4 10 5.07 10 5C10 2.24 7.76 0 5 0C5 0 5 0 5 0C1.67 1.49 0 3.16 0 5Z" id="j8VvoEj2b"></path></defs><g><g><g><use xlink:href="#j8VvoEj2b" opacity="1" fill="#a3be8c" fill-opacity="1"></use><g><use xlink:href="#j8VvoEj2b" opacity="1" fill-opacity="0" stroke="#000000" stroke-width="1" stroke-opacity="0"></use></g></g></g></g></svg>